<?xml version="1.0" standalone="no"?>
<!DOCTYPE svg PUBLIC "-//W3C//DTD SVG 20010904//EN"
 "http://www.w3.org/TR/2001/REC-SVG-20010904/DTD/svg10.dtd">
<svg version="1.0" xmlns="http://www.w3.org/2000/svg"
 width="550.000000pt" height="550.000000pt" viewBox="0 0 550.000000 550.000000"
 preserveAspectRatio="xMidYMid meet">

  <g transform="translate(0,550) scale(0.1,-0.1)">
    <!-- 1. Lớp nền trắng cho toàn bộ hình tròn (giữ phần giữa không bị rỗng) -->
    <path d="M2540 5494 c-670 -63 -1237 -320 -1703 -773 -444 -432 -712 -955 -809 -1576 -29 -188 -32 -577 -5 -760 89 -601 339 -1117 745 -1537 160 -165 279 -265 457 -383 357 -238 725 -378 1160 -442 168 -24 562 -24 730 0 486 71 906 245 1294 534 152 114 420 382 534 534 289 388 463 808 534 1294 12 89 17 184 17 365 0 181 -5 276 -17 365 -64 435 -204 803 -442 1160 -432 649 -1110 1079 -1885 1196 -131 19 -498 33 -610 23z" fill="#FFFFFF" />
    
    <!-- 2. Nhóm các chi tiết màu đen ban đầu của bạn -->
    <g fill="#000000">
      <path d="M2540 5494 c-670 -63 -1237 -320 -1703 -773 -444 -432 -712 -955 -809 -1576 -29 -188 -32 -577 -5 -760 89 -601 339 -1117 745 -1537 160 -165 279 -265 457 -383 357 -238 725 -378 1160 -442 168 -24 562 -24 730 0 486 71 906 245 1294 534 152 114 420 382 534 534 289 388 463 808 534 1294 12 89 17 184 17 365 0 181 -5 276 -17 365 -64 435 -204 803 -442 1160 -432 649 -1110 1079 -1885 1196 -131 19 -498 33 -610 23z m356 -918 c347 -20 734 -179 1023 -421 318 -266 539 -637 621 -1042 119 -591 -57 -1202 -469 -1626 -324 -334 -720 -519 -1188 -557 -420 -34 -842 85 -1205 340 -114 80 -342 305 -421 416 -156 221 -252 440 -309 704 -20 92 -22 134 -22 340 0 217 2 244 26 360 162 754 711 1313 1433 1460 101 21 319 39 390 33 17 -1 71 -5 121 -7z" />
      <path d="M2673 4319 c-74 -36 -155 -135 -222 -269 -74 -148 -141 -348 -121 -360 55 -34 785 -34 840 0 11 7 7 30 -25 127 -55 169 -142 336 -218 419 -93 102 -167 126 -254 83z" />
      <path d="M2190 4236 c-117 -46 -220 -99 -315 -162 -91 -60 -215 -161 -215 -175 0 -10 138 -81 213 -109 80 -29 196 -59 201 -52 2 4 15 49 30 99 30 105 97 268 151 367 20 36 33 66 28 66 -4 -1 -46 -16 -93 -34z" />
      <path d="M3265 4163 c61 -123 106 -234 136 -343 12 -41 23 -78 25 -82 15 -24 414 131 414 161 0 29 -225 192 -367 264 -87 44 -239 107 -258 107 -3 0 20 -48 50 -107z" />
      <path d="M1416 3609 c-72 -112 -135 -245 -175 -366 -33 -100 -71 -283 -71 -339 l0 -34 393 0 394 0 7 123 c4 67 16 187 27 266 11 79 19 160 17 179 -4 47 -34 67 -174 117 -60 20 -164 62 -231 91 -67 30 -123 54 -125 54 -2 0 -29 -41 -62 -91z" />
      <path d="M3915 3654 c-55 -25 -163 -68 -240 -96 -77 -28 -150 -60 -162 -71 -28 -25 -29 -61 -8 -197 8 -52 20 -168 27 -257 l12 -163 393 0 393 0 0 34 c0 111 -71 367 -144 522 -41 87 -155 274 -166 273 -3 0 -50 -20 -105 -45z" />
      <path d="M2246 3343 c-19 -127 -34 -276 -38 -388 l-3 -80 545 0 545 0 -3 80 c-4 111 -19 261 -38 385 l-16 106 -106 -14 c-201 -27 -743 -18 -853 14 -14 4 -19 -13 -33 -103z" />
      <path d="M1170 2602 c0 -59 33 -221 67 -326 54 -169 120 -303 210 -428 l34 -48 50 26 c61 30 270 114 361 143 97 32 118 52 118 109 0 26 -7 88 -15 137 -8 50 -21 163 -27 253 l-12 162 -393 0 -393 0 0 -28z" />
      <path d="M2204 2588 c3 -24 8 -92 11 -153 7 -110 40 -363 49 -373 3 -3 56 2 118 9 149 18 596 19 741 0 60 -7 110 -11 113 -8 9 9 43 270 49 379 3 62 8 130 10 151 l5 37 -550 0 -551 0 5 -42z" />
      <path d="M3532 2468 c-7 -90 -19 -206 -27 -258 -20 -129 -19 -173 3 -193 10 -9 88 -42 173 -73 85 -31 196 -76 246 -99 l92 -43 34 46 c121 167 225 417 261 631 9 52 16 107 16 123 l0 28 -393 0 -393 0 -12 -162z" />
      <path d="M2421 1826 c-55 -6 -96 -16 -98 -23 -7 -21 66 -226 122 -338 83 -170 172 -268 267 -297 109 -32 236 78 343 297 58 119 130 318 122 339 -13 32 -541 48 -756 22z" />
      <path d="M1990 1751 c-117 -32 -262 -94 -315 -135 -20 -16 -19 -16 15 -46 125 -108 275 -205 410 -265 100 -44 193 -77 188 -67 -102 197 -208 460 -208 517 0 18 -7 18 -90 -4z" />
      <path d="M3420 1755 c0 -40 -86 -273 -142 -388 -35 -70 -58 -127 -52 -127 48 0 290 115 409 195 82 55 198 148 203 165 8 22 -179 108 -318 147 -101 27 -100 27 -100 8z" />
    </g>
  </g>
</svg>
